<svg width="28" height="27" viewBox="0 0 28 27" fill="none" xmlns="http://www.w3.org/2000/svg">
<path fill-rule="evenodd" clip-rule="evenodd" d="M14.1382 0.705322C6.75634 0.705322 0.777344 6.68431 0.777344 14.0662C0.777344 19.9784 4.60189 24.972 9.91284 26.7423C10.5809 26.8592 10.8314 26.4584 10.8314 26.1077C10.8314 25.7904 10.8147 24.7382 10.8147 23.6192C7.45778 24.2372 6.58932 22.8009 6.32211 22.0493C6.1718 21.6652 5.52045 20.4794 4.95262 20.1621C4.48499 19.9116 3.81694 19.2936 4.93592 19.2769C5.98809 19.2602 6.73963 20.2456 6.99015 20.6464C8.19263 22.6673 10.1133 22.0994 10.8815 21.7487C10.9984 20.8802 11.3491 20.2957 11.7333 19.9617C8.76047 19.6277 5.65406 18.4753 5.65406 13.3648C5.65406 11.9118 6.1718 10.7093 7.02355 9.77402C6.88994 9.43999 6.42231 8.0705 7.15716 6.23338C7.15716 6.23338 8.27614 5.88266 10.8314 7.60287C11.9003 7.30225 13.0359 7.15194 14.1716 7.15194C15.3073 7.15194 16.443 7.30225 17.5118 7.60287C20.0671 5.86596 21.1861 6.23338 21.1861 6.23338C21.9209 8.0705 21.4533 9.43999 21.3197 9.77402C22.1714 10.7093 22.6892 11.8951 22.6892 13.3648C22.6892 18.492 19.5661 19.6277 16.5933 19.9617C17.0776 20.3792 17.4951 21.1809 17.4951 22.4334C17.4951 24.2205 17.4784 25.6568 17.4784 26.1077C17.4784 26.4584 17.729 26.8759 18.397 26.7423C21.0494 25.8469 23.3542 24.1423 24.987 21.8683C26.6198 19.5944 27.4984 16.8656 27.4991 14.0662C27.4991 6.68431 21.5201 0.705322 14.1382 0.705322Z" fill="white"/>
</svg>
