<svg width="28" height="27" viewBox="0 0 28 27" fill="none" xmlns="http://www.w3.org/2000/svg">
<path fill-rule="evenodd" clip-rule="evenodd" d="M0.748047 13.7366C0.748047 8.43845 0.748047 5.78936 2.01056 3.88129C2.57433 3.02925 3.30403 2.29955 4.15607 1.73578C6.06414 0.473267 8.71323 0.473267 14.0114 0.473267C19.3096 0.473267 21.9587 0.473267 23.8667 1.73578C24.7188 2.29955 25.4485 3.02925 26.0123 3.88129C27.2748 5.78936 27.2748 8.43845 27.2748 13.7366C27.2748 19.0348 27.2748 21.6839 26.0123 23.592C25.4485 24.444 24.7188 25.1737 23.8667 25.7375C21.9587 27 19.3096 27 14.0114 27C8.71323 27 6.06414 27 4.15607 25.7375C3.30403 25.1737 2.57433 24.444 2.01056 23.592C0.748047 21.6839 0.748047 19.0348 0.748047 13.7366ZM20.8797 13.7373C20.8797 17.5296 17.8054 20.6039 14.0131 20.6039C10.2208 20.6039 7.14648 17.5296 7.14648 13.7373C7.14648 9.94501 10.2208 6.87073 14.0131 6.87073C17.8054 6.87073 20.8797 9.94501 20.8797 13.7373ZM14.0131 18.2808C16.5224 18.2808 18.5565 16.2466 18.5565 13.7373C18.5565 11.2281 16.5224 9.19389 14.0131 9.19389C11.5038 9.19389 9.46964 11.2281 9.46964 13.7373C9.46964 16.2466 11.5038 18.2808 14.0131 18.2808ZM21.1487 8.13966C22.0398 8.13966 22.7622 7.41729 22.7622 6.52619C22.7622 5.6351 22.0398 4.91272 21.1487 4.91272C20.2576 4.91272 19.5352 5.6351 19.5352 6.52619C19.5352 7.41729 20.2576 8.13966 21.1487 8.13966Z" fill="white"/>
</svg>
