<svg width="27" height="26" viewBox="0 0 27 26" fill="none" xmlns="http://www.w3.org/2000/svg">
<path d="M0 3.03951C0 2.18887 0.298733 1.48711 0.896173 0.934217C1.49361 0.381303 2.27031 0.104858 3.22622 0.104858C4.16508 0.104858 4.92468 0.377041 5.50506 0.921458C6.1025 1.48287 6.40124 2.21439 6.40124 3.11607C6.40124 3.93267 6.11105 4.61315 5.53067 5.15757C4.93323 5.71898 4.148 5.99968 3.17501 5.99968H3.14941C2.21055 5.99968 1.45096 5.71898 0.870568 5.15757C0.290181 4.59615 0 3.89013 0 3.03951ZM0.332864 25.3684V8.32189H6.01716V25.3684H0.332864ZM9.16657 25.3684H14.8509V15.8499C14.8509 15.2545 14.9192 14.7951 15.0557 14.4719C15.2947 13.8935 15.6574 13.4044 16.1439 13.0046C16.6304 12.6048 17.2407 12.4049 17.9747 12.4049C19.8865 12.4049 20.8424 13.6893 20.8424 16.2582V25.3684H26.5267V15.5947C26.5267 13.0769 25.9293 11.1672 24.7344 9.86577C23.5395 8.56432 21.9605 7.91359 19.9975 7.91359C17.7954 7.91359 16.0799 8.85778 14.8509 10.7462V10.7972H14.8253L14.8509 10.7462V8.32189H9.16657C9.2007 8.86628 9.21778 10.559 9.21778 13.4001C9.21778 16.2412 9.2007 20.2306 9.16657 25.3684Z" fill="white"/>
</svg>
