<svg width="242" height="42" viewBox="0 0 242 42" fill="none" xmlns="http://www.w3.org/2000/svg">
<path d="M15.8574 32.0983H20.9828L26.1082 9.90161H20.9828L15.8574 32.0983Z" fill="#075FE4"/>
<path d="M11.0113 9.98657L0 20.9979L0.00205012 21L0 21.002L11.0113 32.0134L14.351 28.6737L6.67734 21L14.351 13.3263L11.0113 9.98657Z" fill="#075FE4"/>
<path d="M3.33977 17.6626L0.00195312 21.0005L3.33989 24.3383L6.6777 21.0004L3.33977 17.6626Z" fill="#075FE4"/>
<path d="M41.9995 20.9979L30.9881 9.98657L27.6484 13.3263L35.3221 21L27.6484 28.6737L30.9881 32.0134L41.9995 21.002L41.9974 21L41.9995 20.9979Z" fill="#075FE4"/>
<path d="M38.6601 17.6618L35.3223 20.9998L38.6602 24.3376L41.998 20.9996L38.6601 17.6618Z" fill="#075FE4"/>
<path d="M53.472 32V28.288H56.416V13.312H53.472V9.6H62.688C65.696 9.6 67.9787 10.368 69.536 11.904C71.1147 13.4187 71.904 15.68 71.904 18.688V22.912C71.904 25.92 71.1147 28.192 69.536 29.728C67.9787 31.2427 65.696 32 62.688 32H53.472ZM60.64 28.16H62.752C64.4587 28.16 65.7067 27.712 66.496 26.816C67.2853 25.92 67.68 24.6613 67.68 23.04V18.56C67.68 16.9173 67.2853 15.6587 66.496 14.784C65.7067 13.888 64.4587 13.44 62.752 13.44H60.64V28.16ZM80.4805 32.448C79.3498 32.448 78.3365 32.256 77.4405 31.872C76.5445 31.4667 75.8298 30.8907 75.2965 30.144C74.7845 29.376 74.5285 28.448 74.5285 27.36C74.5285 26.272 74.7845 25.3653 75.2965 24.64C75.8298 23.8933 76.5552 23.3387 77.4725 22.976C78.4112 22.592 79.4778 22.4 80.6725 22.4H85.0245V21.504C85.0245 20.7573 84.7898 20.1493 84.3205 19.68C83.8512 19.1893 83.1045 18.944 82.0805 18.944C81.0778 18.944 80.3312 19.1787 79.8405 19.648C79.3498 20.096 79.0298 20.6827 78.8805 21.408L75.1685 20.16C75.4245 19.3493 75.8298 18.6133 76.3845 17.952C76.9605 17.2693 77.7178 16.7253 78.6565 16.32C79.6165 15.8933 80.7792 15.68 82.1445 15.68C84.2352 15.68 85.8885 16.2027 87.1045 17.248C88.3205 18.2933 88.9285 19.808 88.9285 21.792V27.712C88.9285 28.352 89.2272 28.672 89.8245 28.672H91.1045V32H88.4165C87.6272 32 86.9765 31.808 86.4645 31.424C85.9525 31.04 85.6965 30.528 85.6965 29.888V29.856H85.0885C85.0032 30.112 84.8112 30.4533 84.5125 30.88C84.2138 31.2853 83.7445 31.648 83.1045 31.968C82.4645 32.288 81.5898 32.448 80.4805 32.448ZM81.1845 29.184C82.3152 29.184 83.2325 28.8747 83.9365 28.256C84.6618 27.616 85.0245 26.7733 85.0245 25.728V25.408H80.9605C80.2138 25.408 79.6272 25.568 79.2005 25.888C78.7738 26.208 78.5605 26.656 78.5605 27.232C78.5605 27.808 78.7845 28.2773 79.2325 28.64C79.6805 29.0027 80.3312 29.184 81.1845 29.184ZM96.4743 32L91.4183 16.128H95.7063L99.3863 29.056H99.9623L103.642 16.128H107.93L102.874 32H96.4743ZM110.678 32V16.128H114.71V32H110.678ZM112.694 14.272C111.968 14.272 111.35 14.0373 110.838 13.568C110.347 13.0987 110.102 12.48 110.102 11.712C110.102 10.944 110.347 10.3253 110.838 9.856C111.35 9.38667 111.968 9.152 112.694 9.152C113.44 9.152 114.059 9.38667 114.55 9.856C115.04 10.3253 115.286 10.944 115.286 11.712C115.286 12.48 115.04 13.0987 114.55 13.568C114.059 14.0373 113.44 14.272 112.694 14.272ZM125.578 32.448C124.319 32.448 123.135 32.1387 122.026 31.52C120.938 30.88 120.063 29.952 119.402 28.736C118.74 27.52 118.41 26.048 118.41 24.32V23.808C118.41 22.08 118.74 20.608 119.402 19.392C120.063 18.176 120.938 17.2587 122.026 16.64C123.114 16 124.298 15.68 125.578 15.68C126.538 15.68 127.338 15.7973 127.978 16.032C128.639 16.2453 129.172 16.5227 129.578 16.864C129.983 17.2053 130.292 17.568 130.506 17.952H131.082V9.6H135.114V32H131.146V30.08H130.57C130.207 30.6773 129.642 31.2213 128.874 31.712C128.127 32.2027 127.028 32.448 125.578 32.448ZM126.794 28.928C128.031 28.928 129.066 28.5333 129.898 27.744C130.73 26.9333 131.146 25.76 131.146 24.224V23.904C131.146 22.368 130.73 21.2053 129.898 20.416C129.087 19.6053 128.052 19.2 126.794 19.2C125.556 19.2 124.522 19.6053 123.69 20.416C122.858 21.2053 122.442 22.368 122.442 23.904V24.224C122.442 25.76 122.858 26.9333 123.69 27.744C124.522 28.5333 125.556 28.928 126.794 28.928ZM138.816 32V28.288H141.76V13.312H138.816V9.6H150.336C151.701 9.6 152.885 9.83467 153.888 10.304C154.912 10.752 155.701 11.4027 156.256 12.256C156.832 13.088 157.12 14.0907 157.12 15.264V15.584C157.12 16.608 156.928 17.4507 156.544 18.112C156.16 18.752 155.701 19.2533 155.168 19.616C154.656 19.9573 154.165 20.2027 153.696 20.352V20.928C154.165 21.056 154.677 21.3013 155.232 21.664C155.786 22.0053 156.256 22.5067 156.64 23.168C157.045 23.8293 157.248 24.6933 157.248 25.76V26.08C157.248 27.3173 156.96 28.384 156.384 29.28C155.808 30.1547 155.008 30.8267 153.984 31.296C152.981 31.7653 151.808 32 150.464 32H138.816ZM145.984 28.16H149.952C150.869 28.16 151.605 27.936 152.16 27.488C152.736 27.04 153.024 26.4 153.024 25.568V25.248C153.024 24.416 152.746 23.776 152.192 23.328C151.637 22.88 150.89 22.656 149.952 22.656H145.984V28.16ZM145.984 18.816H149.888C150.762 18.816 151.477 18.592 152.032 18.144C152.608 17.696 152.896 17.0773 152.896 16.288V15.968C152.896 15.1573 152.618 14.5387 152.064 14.112C151.509 13.664 150.784 13.44 149.888 13.44H145.984V18.816ZM160.834 32V16.128H164.802V17.92H165.378C165.612 17.28 165.996 16.8107 166.53 16.512C167.084 16.2133 167.724 16.064 168.45 16.064H170.37V19.648H168.386C167.362 19.648 166.519 19.9253 165.858 20.48C165.196 21.0133 164.866 21.8453 164.866 22.976V32H160.834ZM180.191 32.448C178.612 32.448 177.215 32.1173 175.999 31.456C174.804 30.7733 173.865 29.824 173.183 28.608C172.521 27.3707 172.191 25.92 172.191 24.256V23.872C172.191 22.208 172.521 20.768 173.183 19.552C173.844 18.3147 174.772 17.3653 175.967 16.704C177.161 16.0213 178.548 15.68 180.127 15.68C181.684 15.68 183.039 16.032 184.191 16.736C185.343 17.4187 186.239 18.3787 186.879 19.616C187.519 20.832 187.839 22.2507 187.839 23.872V25.248H176.287C176.329 26.336 176.735 27.2213 177.503 27.904C178.271 28.5867 179.209 28.928 180.319 28.928C181.449 28.928 182.281 28.6827 182.815 28.192C183.348 27.7013 183.753 27.1573 184.031 26.56L187.327 28.288C187.028 28.8427 186.591 29.4507 186.015 30.112C185.46 30.752 184.713 31.3067 183.775 31.776C182.836 32.224 181.641 32.448 180.191 32.448ZM176.319 22.24H183.743C183.657 21.3227 183.284 20.5867 182.623 20.032C181.983 19.4773 181.14 19.2 180.095 19.2C179.007 19.2 178.143 19.4773 177.503 20.032C176.863 20.5867 176.468 21.3227 176.319 22.24ZM196.976 32C195.931 32 195.078 31.68 194.416 31.04C193.776 30.3787 193.456 29.504 193.456 28.416V19.456H189.488V16.128H193.456V11.2H197.488V16.128H201.84V19.456H197.488V27.712C197.488 28.352 197.787 28.672 198.384 28.672H201.456V32H196.976ZM212.48 32.448C210.901 32.448 209.482 32.128 208.224 31.488C206.965 30.848 205.973 29.92 205.248 28.704C204.522 27.488 204.16 26.0267 204.16 24.32V23.808C204.16 22.1013 204.522 20.64 205.248 19.424C205.973 18.208 206.965 17.28 208.224 16.64C209.482 16 210.901 15.68 212.48 15.68C214.058 15.68 215.477 16 216.736 16.64C217.994 17.28 218.986 18.208 219.712 19.424C220.437 20.64 220.8 22.1013 220.8 23.808V24.32C220.8 26.0267 220.437 27.488 219.712 28.704C218.986 29.92 217.994 30.848 216.736 31.488C215.477 32.128 214.058 32.448 212.48 32.448ZM212.48 28.864C213.717 28.864 214.741 28.4693 215.552 27.68C216.362 26.8693 216.768 25.7173 216.768 24.224V23.904C216.768 22.4107 216.362 21.2693 215.552 20.48C214.762 19.6693 213.738 19.264 212.48 19.264C211.242 19.264 210.218 19.6693 209.408 20.48C208.597 21.2693 208.192 22.4107 208.192 23.904V24.224C208.192 25.7173 208.597 26.8693 209.408 27.68C210.218 28.4693 211.242 28.864 212.48 28.864ZM224.521 32V16.128H228.489V18.208H229.065C229.321 17.6533 229.801 17.1307 230.505 16.64C231.209 16.128 232.276 15.872 233.705 15.872C234.943 15.872 236.02 16.16 236.937 16.736C237.876 17.2907 238.601 18.0693 239.113 19.072C239.625 20.0533 239.881 21.2053 239.881 22.528V32H235.849V22.848C235.849 21.6533 235.551 20.7573 234.953 20.16C234.377 19.5627 233.545 19.264 232.457 19.264C231.22 19.264 230.26 19.68 229.577 20.512C228.895 21.3227 228.553 22.464 228.553 23.936V32H224.521Z" fill="white"/>
</svg>
